<svg xmlns="http://www.w3.org/2000/svg" viewBox="0 0 64 80" x="0px" y="0px"><path d="M48,48H46v4H28v2H46v3a3,3,0,0,1-3,3H21a3.011,3.011,0,0,1-2.6-1.5l-1.732,1A5.021,5.021,0,0,0,21,62H43a5.006,5.006,0,0,0,5-5Z"/><rect x="31" y="56" width="2" height="2"/><path d="M37,29V27H33.949A13,13,0,0,0,22,15.051V12H20v3.051a12.92,12.92,0,0,0-2,.312V10H34V8H18V7a3,3,0,0,1,3-3H43a3,3,0,0,1,1.984.75l1.323-1.5A4.994,4.994,0,0,0,43,2H21a5.006,5.006,0,0,0-5,5v9A13.017,13.017,0,0,0,8.051,27H5v2H8.053A12.942,12.942,0,0,0,20,40.954V44h2V40.954A12.942,12.942,0,0,0,33.947,29ZM20,37v1.954A10.957,10.957,0,0,1,16,37.8V36a5,5,0,0,1,10,0v1.8a10.976,10.976,0,0,1-4,1.157V37ZM18,26a3,3,0,1,1,3,3A3,3,0,0,1,18,26Zm10.333,10.2c-.108.1-.223.18-.333.272V36a7,7,0,0,0-3.779-6.208,5,5,0,1,0-6.442,0A7,7,0,0,0,14,36v.477c-.111-.091-.226-.176-.333-.272A11.007,11.007,0,0,1,10.053,29H12V27H10.051A11.01,11.01,0,0,1,20,17.051V19h2V17.051A11.01,11.01,0,0,1,31.949,27H30v2h1.947A11.007,11.007,0,0,1,28.333,36.205Z"/><path d="M59,20a1,1,0,0,0,1-1V7a1,1,0,0,0-1-1H37a1,1,0,0,0-1,1V19a1,1,0,0,0,1,1ZM38,8H58V18H38Z"/><rect x="40" y="10" width="4" height="2"/><rect x="46" y="10" width="10" height="2"/><rect x="40" y="14" width="16" height="2"/><path d="M58.823,22a3.17,3.17,0,0,0-2.1.8L48,30.49V22H46V32h.289L40.6,37.02A7,7,0,0,0,34,44v1.764a2.6,2.6,0,0,1-1.447,2.341A1,1,0,0,0,33,50h7a7,7,0,0,0,6.98-6.6L61.206,27.278A3.177,3.177,0,0,0,58.823,22ZM40,48H35.427A4.616,4.616,0,0,0,36,45.764V44a5.007,5.007,0,0,1,4.6-4.984L44.984,43.4A5.006,5.006,0,0,1,40,48ZM59.706,25.955,45.955,41.54,42.46,38.046,58.045,24.294a1.177,1.177,0,0,1,1.661,1.661Z"/><path d="M3,57H25a1,1,0,0,0,1-1V48a1,1,0,0,0-1-1H18V42H16v5H3a1,1,0,0,0-1,1v8A1,1,0,0,0,3,57Zm1-8H24v6H4Z"/><rect x="6" y="51" width="5" height="2"/><rect x="13" y="51" width="9" height="2"/><path d="M3,16H13a1,1,0,0,0,1-1V7a1,1,0,0,0-1-1H3A1,1,0,0,0,2,7v8A1,1,0,0,0,3,16ZM4,8h8v6H4Z"/><rect x="6" y="10" width="4" height="2"/><text x="0" y="79" fill="#000000" font-size="5px" font-weight="bold" font-family="'Helvetica Neue', Helvetica, Arial-Unicode, Arial, Sans-serif">Created by monkik</text><text x="0" y="84" fill="#000000" font-size="5px" font-weight="bold" font-family="'Helvetica Neue', Helvetica, Arial-Unicode, Arial, Sans-serif">from the Noun Project</text></svg>